<?xml version="1.0" encoding="utf-8"?>
<!-- Generator: Adobe Illustrator 15.0.0, SVG Export Plug-In  -->
<!DOCTYPE svg PUBLIC "-//W3C//DTD SVG 1.1//EN" "http://www.w3.org/Graphics/SVG/1.1/DTD/svg11.dtd" [
	<!ENTITY ns_flows "http://ns.adobe.com/Flows/1.0/">
]>
<svg version="1.1"
	 xmlns="http://www.w3.org/2000/svg" xmlns:xlink="http://www.w3.org/1999/xlink" xmlns:a="http://ns.adobe.com/AdobeSVGViewerExtensions/3.0/"
	 x="0px" y="0px" width="600px" height="400px" viewBox="-76.25 -3.211 600 400"
	 overflow="visible" enable-background="new -76.25 -3.211 600 400" xml:space="preserve">
<defs>
</defs>
<path fill="#FFFFFF" d="M447.5,0H0v310.71h72.635v82.867l75.441-82.867H447.5V0z M128.761,185.266
	c-16.508,0-29.924-13.38-29.924-29.907c0-16.535,13.416-29.924,29.924-29.924c16.509,0,29.906,13.389,29.906,29.924
	C158.667,171.886,145.271,185.266,128.761,185.266 M223.75,185.266c-16.509,0-29.925-13.38-29.925-29.907
	c0-16.535,13.416-29.924,29.925-29.924c16.508,0,29.906,13.389,29.906,29.924C253.656,171.886,240.258,185.266,223.75,185.266
	 M318.738,185.266c-16.508,0-29.906-13.38-29.906-29.907c0-16.535,13.398-29.924,29.906-29.924s29.925,13.389,29.925,29.924
	C348.663,171.886,335.246,185.266,318.738,185.266"/>
</svg>
