<?xml version="1.0" encoding="utf-8"?>
<!-- Generator: Adobe Illustrator 15.0.0, SVG Export Plug-In  -->
<!DOCTYPE svg PUBLIC "-//W3C//DTD SVG 1.1//EN" "http://www.w3.org/Graphics/SVG/1.1/DTD/svg11.dtd" [
	<!ENTITY ns_flows "http://ns.adobe.com/Flows/1.0/">
]>
<svg version="1.1"
	 xmlns="http://www.w3.org/2000/svg" xmlns:xlink="http://www.w3.org/1999/xlink" xmlns:a="http://ns.adobe.com/AdobeSVGViewerExtensions/3.0/"
	 x="0px" y="0px" width="1224px" height="792px" viewBox="-261.5 -36.5 1224 792"
	 overflow="visible" enable-background="new -261.5 -36.5 1224 792" xml:space="preserve">
<defs>
</defs>
<path d="M352.9,0C157.991,0,0,157.991,0,352.868c0,194.908,157.991,352.9,352.9,352.9c194.908,0,352.899-157.992,352.899-352.9
	C705.8,157.991,547.809,0,352.9,0 M222.897,218.18c27.292,0,49.36,22.067,49.36,49.359c0,27.23-22.068,49.33-49.36,49.33
	c-27.26,0-49.329-22.1-49.329-49.33C173.569,240.247,195.637,218.18,222.897,218.18 M352.9,535.65
	c-58.606,0-114.141-25.613-152.356-70.32l36.949-39.261c28.971,33.878,71.017,53.287,115.407,53.287
	c44.389,0,86.437-19.409,115.406-53.287l36.948,39.261C467.009,510.037,411.506,535.65,352.9,535.65 M482.902,316.869
	c-27.292,0-49.36-22.1-49.36-49.33c0-27.292,22.068-49.359,49.36-49.359c27.262,0,49.328,22.067,49.328,49.359
	C532.23,294.77,510.164,316.869,482.902,316.869"/>
</svg>
