<svg id="Layer_1" data-name="Layer 1" xmlns="http://www.w3.org/2000/svg" viewBox="0 0 244.44 183.26"><defs><style>.cls-1{fill:#221e1f;}</style></defs><title>art_frankly_reply_icon_filled</title><path class="cls-1" d="M125,166.67V212.5a5,5,0,0,1-2.83,4.53,6.65,6.65,0,0,1-2.27.56,4.25,4.25,0,0,1-3.11-1.13l-112-86.57a5,5,0,0,1,0-7.92l112-86.57a5.25,5.25,0,0,1,5.38-.57A5,5,0,0,1,125,39.35V85.19c76.39,0,119.67,43.29,122.22,112.32a5.11,5.11,0,0,1-4,4.81h-1.13c-1.7,0-2.83-.85-4.52-2.55C219.21,176.85,175.93,166.67,125,166.67Z" transform="translate(-2.78 -34.33)"/></svg>