<svg id="Layer_1" data-name="Layer 1" xmlns="http://www.w3.org/2000/svg" viewBox="0 0 198.18 236.18"><title>art_frankly_paypal_icon</title><path d="M205.18,67.83c0,0.18,0,.35-0.07.53,0-.17,0-0.35.07-0.53h0Z" transform="translate(-25.91 -6.91)"/><path d="M213.37,75a104.15,104.15,0,0,1-10.81,28.1c-12.9,23.47-32.76,37.32-59,41.16a171.83,171.83,0,0,1-25.16,1.47l-5.57,0-5.42,0c-1.13.06-2.24,0.1-3.3,0.13a44.73,44.73,0,0,0-6,.44,5.78,5.78,0,0,0-1.27.34,7,7,0,0,0-.45,1.75c-3.59,22.86-8.7,54.74-11.3,69.35l-1.36,7.62H83.53c-0.51,3.08-1,6.22-1.51,9.46-1.06,7,1.53,8.16,8.68,8.21,10.16,0.07,23,.05,33.43.05,8.73,0,9.55-6.59,10.47-12.14,2.79-16.72,4.5-27.34,6.94-42.92,0.91-5.8,3.56-8.82,9.32-9.83,3.5-.61,7.12-0.5,10.69-0.71,37.56-.44,59.45-33.45,62.11-61.35C224.6,106.21,225,88.51,213.37,75Z" transform="translate(-25.91 -6.91)"/><path d="M195.79,96q2.06-4,3.75-8.07Q197.86,92,195.79,96Z" transform="translate(-25.91 -6.91)"/><path d="M71,6.91c-13.3,0-14.19,3.56-15.32,10.48q-7,42.91-13.75,85.86-5,31.64-9.75,63.32c-2.08,13.68-4.24,27.35-6,41.07-0.9,7,.71,8.43,7.86,8.48,13.63,0.09,28.21.11,41.84,0,2.69-15.11,8-48.41,11.27-69.16,0.91-5.8,3.56-8.82,9.32-9.83,3.5-.61,7.12-0.5,10.69-0.71,12.09,0,23.18.4,35.06-1.33,23.36-3.42,40.78-15.62,52.21-36.42,7.74-14.08,12.2-29,11.59-45,0-22.83-17.69-46-55.41-46C135.76,7.11,82.68,6.91,71,6.91Z" transform="translate(-25.91 -6.91)"/></svg>