<svg id="Layer_1" data-name="Layer 1" xmlns="http://www.w3.org/2000/svg" viewBox="0 0 235.99 246.76"><defs><style>.cls-1{fill:#231f20;}</style></defs><title>art_frankly_endorse_icon_filled</title><path class="cls-1" d="M125.15,1.62C60,1.62,7.1,47.91,7.1,105S61,208.41,125,208.41v40l83.5-70.26c21.35-18.71,34.59-44.56,34.59-73.11C243.09,47.91,190.31,1.62,125.15,1.62Zm57.41,105.49-56.19,56.79L67.74,107.11a27,27,0,0,1,0-38.07h0a27,27,0,0,1,38.06,0l19.35,19.35L144.5,69A26.92,26.92,0,1,1,182.56,107.11Z" transform="translate(-7.1 -1.62)"/></svg>