<svg id="Layer_1" data-name="Layer 1" xmlns="http://www.w3.org/2000/svg" viewBox="0 0 232.53 245.45"><defs><style>.cls-1{fill:#020202;}</style></defs><title>art_frankly_settings_icon_filled</title><path class="cls-1" d="M240.29,159.67a4.36,4.36,0,0,1,1.42,5.39,117.12,117.12,0,0,1-23.29,40.33,4.45,4.45,0,0,1-5.39,1.42l-29.54-10.22a91.58,91.58,0,0,1-24.43,14.2l-6,30.67a4.83,4.83,0,0,1-4,4,127,127,0,0,1-23.29,2.27,127,127,0,0,1-23.29-2.27,4.82,4.82,0,0,1-4-4l-6-30.67a87.36,87.36,0,0,1-24.43-14.2L38.64,206.81a4.46,4.46,0,0,1-5.4-1.42A117.16,117.16,0,0,1,10,165.06a4.36,4.36,0,0,1,1.42-5.39l23.57-20.45A77.71,77.71,0,0,1,33.81,125a77.74,77.74,0,0,1,1.13-14.2L11.38,90.37A4.36,4.36,0,0,1,10,85,117.12,117.12,0,0,1,33.25,44.65a4.46,4.46,0,0,1,5.4-1.42L68.18,53.45A87.35,87.35,0,0,1,92.6,39.25l6-30.67a4.82,4.82,0,0,1,4-4,116.85,116.85,0,0,1,46.58,0,4.83,4.83,0,0,1,4,4l6,30.67a91.58,91.58,0,0,1,24.43,14.2L213,43.22a4.45,4.45,0,0,1,5.39,1.42A117.08,117.08,0,0,1,241.7,85a4.36,4.36,0,0,1-1.42,5.4l-23.57,20.45a77.74,77.74,0,0,1,1.14,14.2,77.71,77.71,0,0,1-1.14,14.2ZM171.84,125a46,46,0,1,0-46,46A46.18,46.18,0,0,0,171.84,125Z" transform="translate(-9.57 -2.26)"/></svg>