<svg id="Layer_1" data-name="Layer 1" xmlns="http://www.w3.org/2000/svg" viewBox="0 0 240.64 242.62"><defs><style>.cls-1{fill:#1a171a;}</style></defs><title>art_frankly_freelance_icon_alt_filled</title><path class="cls-1" d="M81.3,78c11.23,0.18,21.58,3.41,31.3,8.8,4,2.2,7.38,1.92,11-1,9.85-7.92,19.88-15.62,29.79-23.47a24.08,24.08,0,0,0,3.87-4A8,8,0,0,0,158,49.2a63.77,63.77,0,0,0-4-6.2c-3.31-4.82-5.53-10-5.49-16,0-6.94,3-12.68,7.49-17.72a31.57,31.57,0,0,1,4.39-4.16c2.65-2,5.14-2,7.69.16,1.85,1.54,3.48,3.35,5.19,5.05q24.48,24.43,48.95,48.88c7,7,13.82,14,20.71,21,3.32,3.39,3.58,6.39.43,9.93-6,6.73-13.15,11.25-22.57,10.8-5.55-.26-10.39-2.55-14.86-5.73a54.79,54.79,0,0,0-5.62-3.68,8,8,0,0,0-9.82,1.15,63.62,63.62,0,0,0-6.51,7.25c-6.92,8.71-13.68,17.55-20.63,26.23-2.76,3.45-2.86,6.83-.81,10.58a71.26,71.26,0,0,1,7.09,18.11,56.33,56.33,0,0,1-2.81,35.32c-2,4.83-4.83,9.34-7.39,13.93a10.29,10.29,0,0,1-2.38,2.59,5.07,5.07,0,0,1-6.25.63,22.12,22.12,0,0,1-4.41-3.34q-34-33.88-67.94-67.83-16.64-16.64-33.2-33.37a20.24,20.24,0,0,1-3.11-4.16c-1.44-2.51-1.27-4.87.94-6.7a59.14,59.14,0,0,1,9.13-6.24,59.9,59.9,0,0,1,21.44-7.09C76.15,78.36,78.73,78.2,81.3,78Z" transform="translate(-4.9 -3.69)"/><path class="cls-1" d="M95.42,177.83L73.06,195.19q-32.22,25-64.46,49.94c-0.89.69-1.73,2-3.1,0.48a1.65,1.65,0,0,1-.08-2.47c4.32-5.88,8.54-11.84,12.89-17.7q25.87-34.82,51.8-69.59c0.5-.67,1-1.33,1.41-1.82Z" transform="translate(-4.9 -3.69)"/></svg>