<svg id="Layer_1" data-name="Layer 1" xmlns="http://www.w3.org/2000/svg" viewBox="0 0 216.35 239.22"><defs><style>.cls-1{fill:#1a171a;}</style></defs><title>art_frankly_freelance_icon_filled</title><path class="cls-1" d="M145.64,131.14H85.28L83.85,134l57.63,45.51c7.5-4.52,12.62-9.05,11.36-15.35C150.21,151,147.5,139,145.64,131.14Z" transform="translate(-16.83 -5.39)"/><path class="cls-1" d="M52.46,195.65l39.77,26.66c5.79-6.62,10.31-13.84,15.29-19.78,4.31-5.14,10-9.23,15.79-12.79L74.91,151.53Z" transform="translate(-16.83 -5.39)"/><path class="cls-1" d="M232.18,5.39S149,32.06,112.5,44c-10.22,3.35-22.3,5.47-22.3,21.58V111.8h51.61c-0.19-6.08,1.22-12.58,7.68-14.26,0,0,4.61-1.33,43.94-13.33C199,82.52,209,76.85,209,68.5V57c-39.41,12.52-85.11,27.24-85.52,27.37L117.39,66c0.5-.16,62.07-20,104-33.23C238,26.22,232.18,5.39,232.18,5.39Z" transform="translate(-16.83 -5.39)"/><path class="cls-1" d="M16.83,231.54s6.12,9.43,9.25,11c9.69,5,30.76-.31,41.46-3.58a48.86,48.86,0,0,0,9.11-3.85L40.94,211.21Z" transform="translate(-16.83 -5.39)"/></svg>