<svg id="Layer_1" data-name="Layer 1" xmlns="http://www.w3.org/2000/svg" viewBox="0 0 245.64 187.92"><defs><style>.cls-1{fill:#111;}</style></defs><title>art_frankly_new_connection_icon_filled</title><path class="cls-1" d="M179.5,126L115,188.16,3,89V214H218V130.2a63.89,63.89,0,0,1-13,1.33A61.87,61.87,0,0,1,179.5,126Z" transform="translate(-3 -26.08)"/><path class="cls-1" d="M164.71,116.42a61.3,61.3,0,0,1-21.53-46.67c0-.15,0-0.75,0-0.75H6.62l108.13,95.54Z" transform="translate(-3 -26.08)"/><path class="cls-1" d="M204.67,26.08a44,44,0,1,0,44,44A44,44,0,0,0,204.67,26.08Zm-3.94,67.28L179.64,74.56l10-11.22,9.8,8.74L219.06,49.8l11.28,9.93Z" transform="translate(-3 -26.08)"/></svg>