<svg id="Layer_1" data-name="Layer 1" xmlns="http://www.w3.org/2000/svg" viewBox="0 0 240.6 241.21"><defs><style>.cls-1{fill:#221e1f;}</style></defs><title>art_frankly_freelance_icon_alt_filled</title><path class="cls-1" d="M241.87,75.13l-3.73-3.81c-4.88-5-9.93-10.14-15-15.17q-16.54-16.56-33.12-33.08l-10.9-10.88L178,11a53.66,53.66,0,0,0-4.24-4A15.33,15.33,0,0,0,154,6.56a38,38,0,0,0-5.42,5.1c-6.18,6.88-9.34,14.55-9.39,22.79,0,7,2.17,13.61,6.77,20.3l0.74,1.07c0.46,0.66.9,1.29,1.3,1.9-0.18.16-.33,0.29-0.46,0.4q-5.32,4.22-10.68,8.39c-5.06,4-10.29,8-15.42,12.16a69.72,69.72,0,0,0-32.1-8.72,10.33,10.33,0,0,0-1.09,0l-2.07.17c-1.68.13-3.41,0.27-5.23,0.5a64.37,64.37,0,0,0-23,7.57,63.5,63.5,0,0,0-9.82,6.71c-5.78,4.77-7.09,12.48-3.25,19.18A28.39,28.39,0,0,0,49.33,110c9.28,9.38,19.06,19.21,29.89,30,23.78,23.78,43.19,43.16,61.1,61a30.12,30.12,0,0,0,6,4.6A14.86,14.86,0,0,0,164,204a19,19,0,0,0,4.45-5.15C169,197.9,169.5,197,170,196a96.91,96.91,0,0,0,5.55-10.75,60.94,60.94,0,0,0,3.06-38.12,73.26,73.26,0,0,0-6.86-18c3.17-4,6.33-8,9.39-11.94q4.18-5.35,8.39-10.68c1-1.24,2.1-2.6,3.28-3.86,0.64,0.43,1.32.91,2,1.41l0.31,0.22c6.25,4.44,12.43,6.75,18.88,7.06,10.74,0.51,20.33-3.92,28.55-13.18C249,91,248.74,82.14,241.87,75.13ZM215,90.67c-2.4-.11-4.9-1.15-7.85-3.24l-0.3-.21a55.14,55.14,0,0,0-5.84-3.77A17.58,17.58,0,0,0,180.26,86a67.09,67.09,0,0,0-6.94,7.69q-4.27,5.38-8.49,10.81c-3.28,4.2-6.67,8.54-10,12.75-5.06,6.33-5.67,13.78-1.72,21a53.5,53.5,0,0,1,5.37,13.65,40.06,40.06,0,0,1-2,25.39,66.82,66.82,0,0,1-3.58,7c-17.32-17.26-36.13-36-59-58.88-10-10-19.11-19.15-27.75-27.88q0.9-.56,1.8-1.06a43.73,43.73,0,0,1,15.58-5.18c1.35-.17,2.79-0.28,4.3-0.4l1.68-.14a49,49,0,0,1,22.78,6.6c7.29,4,14.89,3.37,21.4-1.87,5.26-4.23,10.69-8.48,15.95-12.59q5.4-4.22,10.78-8.47a31.92,31.92,0,0,0,5.18-5.26,17.51,17.51,0,0,0,1.7-19.52A53,53,0,0,0,163.72,44l-0.67-1c-2.17-3.16-3.13-5.75-3.11-8.4,0-3,1.16-5.67,3.68-8.61l0.88,0.9L175.4,37.75Q192,54.27,208.5,70.81c5,5,10,10.08,14.81,15l1.17,1.2C220.64,90.39,217.58,90.78,215,90.67Z" transform="translate(-6.63 -3.15)"/><path class="cls-1" d="M65.27,163Q42,194.3,18.69,225.59C14.77,230.85,11,236.21,7.1,241.5a1.48,1.48,0,0,0,.07,2.22,1.53,1.53,0,0,0,1.1.63A3.32,3.32,0,0,0,10,243.3q29-22.44,58-44.9L88,182.79,66.54,161.38C66.2,161.82,65.72,162.41,65.27,163Z" transform="translate(-6.63 -3.15)"/></svg>