<svg id="Layer_1" data-name="Layer 1" xmlns="http://www.w3.org/2000/svg" viewBox="0 0 243.32 219.64"><defs><style>.cls-1{fill:#231f20;}</style></defs><title>art_frankly_opportunities_icon</title><path class="cls-1" d="M243.07,103.76L221.34,90.93l22.61-13.11A8.5,8.5,0,0,0,244,63.16L167,17.55a8.5,8.5,0,0,0-8.57-.05L127.33,35.4l-30.54-18a8.5,8.5,0,0,0-8.54-.06L9.14,62.56a8.5,8.5,0,0,0,0,14.73L31.71,90.42,9.84,103a8.5,8.5,0,0,0-.09,14.68l30.33,17.94v46A8.5,8.5,0,0,0,44.33,189l79.06,45.65a8.5,8.5,0,0,0,8.5,0L211,189a8.5,8.5,0,0,0,4.25-7.36V135.31l27.95-17A8.5,8.5,0,0,0,243.07,103.76ZM162.61,34.71l60.26,35.69L204.55,81,144.15,45.33Zm25.07,56.09L126.89,126,65.68,90.49l61.53-35.41ZM30.38,70l62-35.49,18,10.63L48.71,80.64Zm18.29,30.28L110,135.85,91.72,146.42,30.95,110.47Zm8.41,45.41,30.27,17.9a8.5,8.5,0,0,0,8.59,0l23.21-13.45V212.6L57.08,176.77V145.68Zm141.13,31.09L136.15,212.6V151.06l22.78,13.23a8.5,8.5,0,0,0,8.68-.08l30.61-18.57v31.14ZM163.1,147l-19.27-11.19,60.64-35.15,17.73,10.47Z" transform="translate(-4.86 -16.18)"/></svg>