<svg id="Layer_1" data-name="Layer 1" xmlns="http://www.w3.org/2000/svg" viewBox="0 0 241.32 241.36"><defs><style>.cls-1{fill:#231f20;}</style></defs><title>art_frankly_search_icon</title><path class="cls-1" d="M218.41,30.68A89.27,89.27,0,0,0,76.5,135.79L5.69,206.6a8.5,8.5,0,0,0,0,12L30.46,243.4a8.5,8.5,0,0,0,12,0l70.82-70.82A89.27,89.27,0,0,0,218.41,30.68ZM36.47,225.37L23.72,212.61,86.1,150.23A89.69,89.69,0,0,0,98.86,163Zm169.92-80.46a72.27,72.27,0,1,1,0-102.21A72.36,72.36,0,0,1,206.39,144.91Z" transform="translate(-3.2 -4.53)"/></svg>