<svg id="Layer_1" data-name="Layer 1" xmlns="http://www.w3.org/2000/svg" viewBox="0 0 196.53 242.98"><defs><style>.cls-1{fill:#221e1f;}</style></defs><title>art_frankly_info_icon</title><path class="cls-1" d="M68.82,246.74H39.94a13.22,13.22,0,0,1-13.21-13.21V24.29a13.39,13.39,0,0,1,6.48-11.21l0.24-.14C40,9.31,63.7,3.76,80.59,3.76c15.81,0,33.49,4.6,51.73,9.74,14.41,4.05,32.35,9.1,47.13,9.1a61.35,61.35,0,0,0,25.23-5.24l0.38-.16a13.3,13.3,0,0,1,18.2,12.34V132a13.72,13.72,0,0,1-6.4,11.26c-0.24.16-.49,0.31-0.74,0.44a80.63,80.63,0,0,1-36.67,8.83c-17.12,0-36.31-5.4-51.73-9.73-16.45-4.63-32.33-8.8-45.69-9.08v99.76A13.22,13.22,0,0,1,68.82,246.74Zm-25.09-17H65V125.51a8.5,8.5,0,0,1,8.5-8.5c0.94,0,2-.06,3.06-0.12,1.27-.07,2.59-0.14,4-0.14,15.82,0,33.5,4.6,51.73,9.73,14.42,4.05,32.36,9.1,47.13,9.1a64.8,64.8,0,0,0,26.81-5.91V35a79.33,79.33,0,0,1-26.81,4.55c-17.12,0-36.31-5.4-51.73-9.73-17.05-4.8-33.49-9.1-47.13-9.1-13.38,0-30.53,4-36.86,6.22V229.74Z" transform="translate(-26.74 -3.76)"/></svg>