<svg id="Layer_1" data-name="Layer 1" xmlns="http://www.w3.org/2000/svg" viewBox="0 0 238.63 242.61"><defs><style>.cls-1{fill:#221e1f;}</style></defs><title>art_frankly_notifications_icon</title><path class="cls-1" d="M240.53,178.3l-37.77-37.53V81.46a77.76,77.76,0,1,0-155.53,0v59.31L9.44,178.32A13.68,13.68,0,0,0,6.26,191.8a8.53,8.53,0,0,0,.36,1,13.2,13.2,0,0,0,12.17,8H78.87a46.13,46.13,0,0,0,92.26,0H231.2a13.2,13.2,0,0,0,12.17-8,8.36,8.36,0,0,0,.36-1A13.7,13.7,0,0,0,240.53,178.3ZM125,229.3a29.17,29.17,0,0,1-29.13-28.52h58.26A29.17,29.17,0,0,1,125,229.3ZM28.07,183.78l33.66-33.44a8.5,8.5,0,0,0,2.51-6V81.46a60.76,60.76,0,1,1,121.53,0v62.85a8.5,8.5,0,0,0,2.51,6l33.66,33.44H28.07Z" transform="translate(-5.69 -3.7)"/></svg>