<svg id="Layer_1" data-name="Layer 1" xmlns="http://www.w3.org/2000/svg" viewBox="0 0 227.76 232.97"><defs><style>.cls-1{fill:#231f20;}</style></defs><title>art_frankly_job_post_icon</title><polygon class="cls-1" points="173.19 215.91 17 215.4 17 43.87 114.71 43.87 114.71 26.87 0 26.87 0 232.34 190.19 232.97 190.19 127.76 173.19 127.76 173.19 215.91"/><path class="cls-1" d="M239.66,36.89L209.55,6.79A8.62,8.62,0,0,0,203.5,4.3a8.5,8.5,0,0,0-6,2.55L68.59,138.36a8.5,8.5,0,0,0-2.43,5.95v32.61a8.5,8.5,0,0,0,8.5,8.5h32.61a8.5,8.5,0,0,0,6.18-2.67l126.37-134A8.5,8.5,0,0,0,239.66,36.89Zm-136,131.53H83.17V147.78L181,48,199.62,66.6ZM211.29,54.22L192.88,35.82,203.6,24.88l18.2,18.2Z" transform="translate(-14.39 -4.3)"/></svg>