<?xml version="1.0" encoding="utf-8"?>
<!-- Generator: Adobe Illustrator 19.2.1, SVG Export Plug-In . SVG Version: 6.00 Build 0)  -->
<svg version="1.1" id="Layer_1" xmlns="http://www.w3.org/2000/svg" xmlns:xlink="http://www.w3.org/1999/xlink" x="0px" y="0px"
	 viewBox="0 0 250 250" style="enable-background:new 0 0 250 250;" xml:space="preserve">
<style type="text/css">
	.st0{fill:#221E1F;}
</style>
<title>art_frankly_unlock_icon</title>
<path class="st0" d="M191.9,243.2H58.1c-10.2,0-18.5-8.3-18.5-18.5v-93.8c0-10.4,8.5-19.2,18.5-19.2h8.5v0.1h70.9V66
	c0-4.6-1.5-12.4-11.7-12.4c-7,0-11.1,4.6-11.1,12.4v13.1H66.3V65.4c-0.4-32.3,25.6-59,58-59.3l0.7,0c32,0,58.3,26,58.7,58l0,47.7
	h8.2c10,0,18.5,8.8,18.5,19.2v93.8C210.4,234.9,202.1,243.2,191.9,243.2z M57.8,128.8c-0.5,0.3-1.2,1.1-1.2,2.1v93.8
	c0,0.8,0.7,1.5,1.5,1.5h133.9c0.8,0,1.5-0.7,1.5-1.5v-93.8c0-1.2-1.1-2.2-1.5-2.2l-25.2,0V64.1C166.4,41.5,147.7,23,125,23h-0.6
	c-21.8,0.3-39.6,17.5-41,39.1h14.4c1.6-15.2,12.6-25.5,27.9-25.5c16.9,0,28.7,12.1,28.7,29.4v62.8H57.8z"/>
</svg>
