<svg id="Layer_1" data-name="Layer 1" xmlns="http://www.w3.org/2000/svg" viewBox="0 0 222.33 245.09"><defs><style>.cls-1{fill:#221e1f;}</style></defs><title>art_frankly_freelance_icon</title><path class="cls-1" d="M232.67,4.34a8.5,8.5,0,0,0-7.6-1.23c-0.79.25-79.78,25.57-114.16,36.82l-2.61.82c-9.17,2.85-24.51,7.62-24.51,27.82v51.26L44.55,197,16.86,220.33a8.5,8.5,0,0,0-1.65,11.13c4.69,7.23,8.75,11.76,12.07,13.46q5.64,2.89,14.55,2.89c8.35,0,18.83-1.91,31.34-5.74,18.7-5.71,28.4-19,36.2-29.64,2.05-2.8,4-5.45,5.94-7.78,5.44-6.49,14.36-11.35,22.22-15.64,12-6.56,25.65-14,22.83-28.11-4.4-22-9.15-40.89-9.19-41.08a8.5,8.5,0,0,0-.3-0.93c-1.1-4.83-1.22-10.32-.13-11.5a1,1,0,0,1,.23-0.08l0.22-.06c0.18-.05,4.89-1.41,42-12.75,7.21-2.2,20.86-9.87,20.86-23.12V56.64l0.2-.06c7.58-2.35,21.91-10.29,21.91-23.47V11.21A8.5,8.5,0,0,0,232.67,4.34ZM35.39,229.95a18.8,18.8,0,0,1-1.54-1.71l18.23-15.37,19,11.93c-0.93.36-1.88,0.71-2.89,1C51,231.06,39.48,231.67,35.39,229.95Zm66.89-36.23c-2.32,2.76-4.51,5.77-6.64,8.67a123.85,123.85,0,0,1-9.42,11.83L62.44,199.3l21.62-42.48,33.55,24A65.08,65.08,0,0,0,102.28,193.71Zm31.59-22.12-42-30.1,5.65-11.11h38.73c1.73,7.26,4.66,19.9,7.44,33.83a0.89,0.89,0,0,0,0,.09C143.19,166,138.4,169,133.87,171.6ZM219.17,33.11c0,1.56-4.82,5.65-9.95,7.24C172.9,51.62,119,69.51,118.44,69.69l5.36,16.13c0.46-.15,39.39-13.07,73.27-23.83v9.39c0,2-4.53,5.55-8.82,6.86-34.63,10.57-40.93,12.43-41.68,12.65a17.05,17.05,0,0,0-10.78,8.41c-2.38,4.31-3,9.43-2.78,14.09H100.79V68.58c0-7,2.38-8.43,12.56-11.59,1-.3,1.91-0.59,2.85-0.9,26.57-8.7,79.87-25.82,103-33.23V33.11Z" transform="translate(-13.83 -2.71)"/></svg>