<svg id="Layer_1" data-name="Layer 1" xmlns="http://www.w3.org/2000/svg" viewBox="0 0 244.77 187.88"><defs><style>.cls-1{fill:#231f20;}</style></defs><title>art_frankly_new_connection_icon</title><path class="cls-1" d="M247.77,77.18A54,54,0,0,0,139.84,73H3V211H207V129.58A54.15,54.15,0,0,0,247.77,77.18ZM153.19,112.9l-41.83,36.27L37.75,90H141.21A54,54,0,0,0,153.19,112.9ZM20,194V97.55l91.77,73.77,54.73-47.46a53.66,53.66,0,0,0,23.5,7.24V194H20Zm173.72-81.33A35.35,35.35,0,0,1,170,103.56l-2.6-3-0.2.18A35.47,35.47,0,1,1,193.72,112.67Z" transform="translate(-3 -23.12)"/><polygon class="cls-1" points="185.62 54.14 176.5 46.01 164.15 59.86 186.48 79.77 216.76 48.92 203.51 35.92 185.62 54.14"/></svg>