<svg id="Layer_1" data-name="Layer 1" xmlns="http://www.w3.org/2000/svg" viewBox="0 0 227 239.16"><defs><style>.cls-1{fill:#231f20;}</style></defs><title>art_frankly_menu_icon</title><path class="cls-1" d="M230,5.62H20a8.5,8.5,0,0,0-8.5,8.5V57.8A8.5,8.5,0,0,0,20,66.3H230a8.5,8.5,0,0,0,8.5-8.5V14.12A8.5,8.5,0,0,0,230,5.62ZM221.5,49.3H28.5V22.62h193V49.3Z" transform="translate(-11.5 -5.62)"/><path class="cls-1" d="M230,94.86H20a8.5,8.5,0,0,0-8.5,8.5V147a8.5,8.5,0,0,0,8.5,8.5H230a8.5,8.5,0,0,0,8.5-8.5V103.36A8.5,8.5,0,0,0,230,94.86Zm-8.5,43.68H28.5V111.86h193v26.68Z" transform="translate(-11.5 -5.62)"/><path class="cls-1" d="M230,184.1H20a8.5,8.5,0,0,0-8.5,8.5v43.68a8.5,8.5,0,0,0,8.5,8.5H230a8.5,8.5,0,0,0,8.5-8.5V192.6A8.5,8.5,0,0,0,230,184.1Zm-8.5,43.68H28.5V201.1h193v26.68Z" transform="translate(-11.5 -5.62)"/></svg>