<svg id="Layer_1" data-name="Layer 1" xmlns="http://www.w3.org/2000/svg" viewBox="0 0 238.29 162.67"><defs><style>.cls-1{fill:#231f20;}</style></defs><title>art_frankly_dropdown_icon</title><path class="cls-1" d="M125.68,219a8.47,8.47,0,0,1-6-2.49L9.06,105.86a8.5,8.5,0,0,1,0-12L44.12,58.79a8.5,8.5,0,0,1,6-2.49H50.2a8.5,8.5,0,0,1,6,2.59l69.45,71.9,69.51-71.9a8.5,8.5,0,0,1,12.12-.1l35.05,35.05a8.5,8.5,0,0,1,0,12L131.69,216.47A8.47,8.47,0,0,1,125.68,219ZM27.09,99.85l98.59,98.59,98.65-98.59L201.41,76.92l-69.62,72a8.5,8.5,0,0,1-6.11,2.59h0a8.5,8.5,0,0,1-6.11-2.59L50,76.92Z" transform="translate(-6.57 -56.3)"/></svg>