<svg id="Layer_1" data-name="Layer 1" xmlns="http://www.w3.org/2000/svg" viewBox="0 0 244.82 208.16"><defs><style>.cls-1{fill:#221e1f;}</style></defs><title>art_frankly_refine_icon</title><path class="cls-1" d="M108.27,229.07a12.75,12.75,0,0,1-6.82-2c-5.71-3.58-7.74-10.74-7.74-16.24L93.6,121.51,7.22,44.68a12,12,0,0,1-4-13.44A15.88,15.88,0,0,1,18.05,20.91H231.72c6.54,0,12.45,3.49,14.7,8.69,2,4.74.86,10.12-3.17,14.41l-0.52.51-86.44,77v70.31c0,4.93-1.8,13.89-13.74,19l-27.47,16.55-0.34.16A14.87,14.87,0,0,1,108.27,229.07ZM23.71,37.35L110,114.13l0.12,96.75c0,0.09,0,.19,0,0.28l25-15.06,0.6-.24c4.12-1.67,4.12-3.16,4.12-4V114.13l86.21-76.79H23.71Z" transform="translate(-2.58 -20.91)"/></svg>