<?xml version="1.0" encoding="utf-8"?>
<!-- Generator: Adobe Illustrator 19.2.1, SVG Export Plug-In . SVG Version: 6.00 Build 0)  -->
<svg version="1.1" id="Layer_1" xmlns="http://www.w3.org/2000/svg" xmlns:xlink="http://www.w3.org/1999/xlink" x="0px" y="0px"
	 viewBox="0 0 250 250" style="enable-background:new 0 0 250 250;" xml:space="preserve">
<style type="text/css">
	.st0{fill:#221E1F;}
</style>
<title>art_frankly_lock_icon</title>
<path class="st0" d="M198.2,245.5c-0.1,0-0.1,0-0.2,0l-146.5,0c-9.9-0.1-17.9-8.3-17.8-18.2l0-102.6c0.1-9.9,10-17.8,18.1-17.8H63
	V66.5c0-34.2,27.8-62,62-62s62,27.8,62,62v40.4h11.4c4.8,0.1,9.3,2,12.7,5.4c3.4,3.4,5.2,8,5.1,12.8v102.2c0,0.1,0,0.2,0,0.4
	C216.1,237.5,208.1,245.5,198.2,245.5z M50.8,125.2l0,102.3c0,0.6,0.4,1,1,1h146.3c0,0,0,0,0,0c0.6,0,1.1-0.5,1.1-1l0-0.1V125
	c0-0.4-0.1-0.6-0.3-0.8c-0.2-0.2-0.4-0.3-0.7-0.3l-14.7,0c-7.4,0-13.5-6.1-13.5-13.5V66.5c0-24.8-20.2-45-45-45s-45,20.2-45,45v43.9
	c0,7.4-6.1,13.5-13.5,13.5H52.4C51.8,124.1,51.1,124.8,50.8,125.2z M52.6,123.8L52.6,123.8z M144.9,112.2h-39.8
	c-7.4,0-13.5-6.1-13.5-13.5V68.9c0-18.4,15-33.4,33.4-33.4s33.4,15,33.4,33.4v29.8C158.4,106.1,152.3,112.2,144.9,112.2L144.9,112.2
	z M108.6,95.2h32.8V68.9c0-9-7.3-16.4-16.4-16.4s-16.4,7.3-16.4,16.4V95.2z"/>
</svg>
