<svg id="Layer_1" data-name="Layer 1" xmlns="http://www.w3.org/2000/svg" viewBox="0 0 239.65 197.51"><defs><style>.cls-1{fill:#231f20;}</style></defs><title>art_frankly_check_icon</title><path class="cls-1" d="M239,61.49l-29.4-29.4a20,20,0,0,0-28.33.06L98.42,116.64,68.65,86.87a20,20,0,0,0-28.22,0L11,116.18a20.11,20.11,0,0,0,0,28.34l73.36,73.36a20,20,0,0,0,14.13,5.89h0a20,20,0,0,0,14.1-5.89l29.46-29.46L239,89.73A20,20,0,0,0,239,61.49ZM226.92,77.77L130,176.45,100.58,205.9a2.92,2.92,0,0,1-2.06.87h0a2.94,2.94,0,0,1-2.08-.88L23.05,132.51a3.07,3.07,0,0,1,0-4.31l29.4-29.29a3,3,0,0,1,4.21,0l41.9,41.9,94.8-96.69a3,3,0,0,1,4.23,0L227,73.51A3,3,0,0,1,226.92,77.77Z" transform="translate(-5.18 -26.25)"/></svg>