<svg id="Layer_1" data-name="Layer 1" xmlns="http://www.w3.org/2000/svg" viewBox="0 0 245.37 188.21"><defs><style>.cls-1{fill:#221e1f;}</style></defs><title>art_frankly_reply_icon</title><path class="cls-1" d="M120.24,220.07a12.32,12.32,0,0,1-8.4-3.06L7.5,136.38a13.13,13.13,0,0,1,0-20.91L112.1,34.65a13.4,13.4,0,0,1,14.06-1.44A13.17,13.17,0,0,1,133.5,45V79.56c69.2,3.13,111.67,44.84,114.18,112.93q0,0.16,0,.31a13.21,13.21,0,0,1-10.14,12.74,8.5,8.5,0,0,1-2.06.25h-1.06c-5.37,0-8.66-3.29-10.24-4.87a8.45,8.45,0,0,1-.62-0.69c-13.31-16.59-45.89-26.52-90.07-27.64v34.21a13.17,13.17,0,0,1-7.34,11.83,8.51,8.51,0,0,1-1.1.46l-0.29.1A12.87,12.87,0,0,1,120.24,220.07Zm3.1-15.57h0ZM21.78,125.93l94.72,73.2V164a8.5,8.5,0,0,1,8.5-8.5c48.22,0,84.89,9.5,104.91,26.94C223.75,127.56,186,96.37,125,96.37a8.5,8.5,0,0,1-8.5-8.5V52.73Zm-4-3.1h0Z" transform="translate(-2.31 -31.86)"/></svg>