<?xml version="1.0" encoding="utf-8"?>
<!-- Generator: Adobe Illustrator 19.2.1, SVG Export Plug-In . SVG Version: 6.00 Build 0)  -->
<svg version="1.1" id="Layer_1" xmlns="http://www.w3.org/2000/svg" xmlns:xlink="http://www.w3.org/1999/xlink" x="0px" y="0px"
	 viewBox="0 0 250 250" style="enable-background:new 0 0 250 250;" xml:space="preserve">
<style type="text/css">
	.st0{fill:#231F20;}
</style>
<title>art_frankly_add_icon</title>
<path class="st0" d="M147.5,246.3h-40.7c-7.2,0-13.1-5.9-13.1-13.1v-74.6H19c-7.2,0-13.1-5.9-13.1-13.1v-40.7
	c0-7.2,5.9-13.1,13.1-13.1h74.6V16.8c0-7.2,5.9-13.1,13.1-13.1h40.7c7.2,0,13.1,5.9,13.1,13.1v74.7H231c7.2,0,13.1,5.9,13.1,13.1
	v40.7c0,7.2-5.9,13.1-13.1,13.1h-70.3v74.6C160.7,240.4,154.8,246.3,147.5,246.3z M110.7,229.3h33v-87.8h83.4v-33h-83.4V20.7h-33
	v87.9H22.9v33h87.8V229.3z"/>
</svg>
