<?xml version="1.0" encoding="utf-8"?>
<!-- Generator: Adobe Illustrator 19.2.1, SVG Export Plug-In . SVG Version: 6.00 Build 0)  -->
<svg version="1.1" id="Layer_1" xmlns="http://www.w3.org/2000/svg" xmlns:xlink="http://www.w3.org/1999/xlink" x="0px" y="0px"
	 viewBox="0 0 250 250" style="enable-background:new 0 0 250 250;" xml:space="preserve">
<style type="text/css">
	.st0{fill:#231F20;}
</style>
<path class="st0" d="M121.5,250.9v-42.4C58.8,206.8,8.3,161.4,8.3,105.8C8.3,49.2,60.7,3.1,125,3.1s116.7,46.1,116.7,102.7
	c0,27.5-12.2,53.3-34.3,72.7l-0.1,0.1L121.5,250.9z M125,20.1c-55,0-99.7,38.4-99.7,85.7S70,191.5,125,191.5
	c7.4,0,13.5,6.1,13.5,13.5v9.3l57.8-48.7c18.3-16.1,28.4-37.4,28.4-59.9C224.7,58.5,180,20.1,125,20.1z"/>
<title>art_frankly_endorse_icon</title>
<path class="st0" d="M126.2,167.3l-58.7-57c-5.5-5.5-8.6-12.9-8.6-20.7c0-7.8,3-15.2,8.5-20.7c5.4-5.5,12.9-8.6,20.7-8.6
	c7.7,0,15,3,20.7,8.3l0.1,0.1l16.1,16.1l16-16.1c11.4-11.4,30-11.4,41.4,0c11.4,11.4,11.4,30.1,0,41.5L126.2,167.3z M79.5,98.2
	l46.5,45.1l44.5-45c4.9-4.9,4.9-12.7,0-17.5c-4.8-4.8-12.6-4.8-17.4,0l-18.5,18.6c-2.5,2.6-6,4-9.5,4c-3.7,0-7.2-1.5-9.6-4.1
	L97.1,80.9c-2.5-2.3-5.6-3.6-8.9-3.6c-3.3,0-6.4,1.3-8.6,3.5l-0.1,0.1c-2.3,2.3-3.6,5.4-3.6,8.7C75.9,92.9,77.2,95.9,79.5,98.2z"/>
</svg>
