<?xml version="1.0" encoding="utf-8"?>
<!-- Generator: Adobe Illustrator 19.2.1, SVG Export Plug-In . SVG Version: 6.00 Build 0)  -->
<svg version="1.1" id="Layer_1" xmlns="http://www.w3.org/2000/svg" xmlns:xlink="http://www.w3.org/1999/xlink" x="0px" y="0px"
	 viewBox="0 0 241.3 241.3" style="enable-background:new 0 0 241.3 241.3;" xml:space="preserve">
<style type="text/css">
	.st0{fill:#231F20;}
</style>
<title>art_frankly_close_icon</title>
<path class="st0" d="M51.5,234.8c-3.4,0-6.7-1.3-9.1-3.8L10.3,199c-5-5-5-13.2,0-18.2l60.1-60.1L10.3,60.6c-5-5-5-13.2,0-18.2
	l32.1-32.1c5-5,13.2-5,18.2,0l60.1,60.1l60.1-60.1c5-5,13.2-5,18.2,0l32.1,32.1c5,5,5,13.2,0,18.2L171,120.7l56.7,56.6
	c5,5,5,13.2,0,18.2l-32.1,32.1c-5,5-13.2,5-18.2,0L120.7,171l-60.1,60.1C58.2,233.5,54.9,234.8,51.5,234.8
	C51.5,234.8,51.5,234.8,51.5,234.8z M48.6,219C48.6,219.1,48.6,219.1,48.6,219L48.6,219z M25.2,189.9l26.3,26.3l69.2-69.2l65.8,65.8
	l26.3-26.3l-65.8-65.7l69.2-69.2l-26.3-26.3l-69.2,69.2L51.5,25.2L25.2,51.5l69.2,69.2L25.2,189.9z"/>
</svg>
