<?xml version="1.0" encoding="utf-8"?>
<!-- Generator: Adobe Illustrator 19.2.1, SVG Export Plug-In . SVG Version: 6.00 Build 0)  -->
<svg version="1.1" id="Layer_1" xmlns="http://www.w3.org/2000/svg" xmlns:xlink="http://www.w3.org/1999/xlink" x="0px" y="0px"
	 viewBox="0 0 250 250" style="enable-background:new 0 0 250 250;" xml:space="preserve">
<style type="text/css">
	.st0{fill:#0C0C0C;}
</style>
<g>
	<path class="st0" d="M125,77.5c-26.2,0-47.5,21.3-47.5,47.5s21.3,47.5,47.5,47.5c26-0.1,47.3-21.4,47.5-47.5
		C172.5,98.8,151.2,77.5,125,77.5z M125,155.5c-16.8,0-30.5-13.7-30.5-30.5c0-16.8,13.7-30.5,30.5-30.5c16.8,0,30.5,13.7,30.5,30.5
		C155.4,141.7,141.7,155.4,125,155.5z"/>
	<path class="st0" d="M216.6,125c0.1-3.8-0.2-7.9-0.8-12.1L241.1,91l-1.8-5.4c-5-14.7-12.7-28-22.9-39.6l-3.8-4.3l-31.7,11
		c-6.5-5-13.5-9.1-21-12.2l-6.4-32.9l-5.6-1.1c-15.2-3-30.5-3-45.7,0l-5.6,1.1l-6.4,32.9c-7.6,3-14.6,7.1-21,12.2L37.5,41.8
		l-3.8,4.2C23.6,57.5,15.9,70.8,10.8,85.7L9,91.1L34.3,113c-0.6,4.3-0.9,8.3-0.8,12.2c-0.1,3.8,0.2,7.9,0.8,12.2L9.1,159.2l1.8,5.4
		c5,14.7,12.7,28,22.9,39.6l3.8,4.3l31.6-10.9c6.4,5,13.4,9.1,21,12.2l6.3,32.7l5.6,1.1c7.6,1.5,15.2,2.3,22.9,2.3
		c7.6,0,15.3-0.8,22.9-2.3l5.6-1.1l6.4-32.9c7.5-3.1,14.6-7.2,20.9-12.2l31.7,10.9l3.8-4.2c10.2-11.5,17.9-24.8,22.9-39.6l1.8-5.4
		l-25.2-21.9C216.4,132.9,216.7,128.8,216.6,125z M221.1,164.4c-3.5,8.8-8.2,16.9-14,24.2l-22.5-7.8c-4.5-1.6-9.5-0.8-13.1,2.3
		c-5.9,4.8-12.5,8.6-19.6,11.4c-4.4,1.6-7.6,5.5-8.5,10.1l-4.6,23.4c-9.3,1.3-18.7,1.3-28,0l-4.5-23.2c-0.8-4.6-4.1-8.4-8.4-10.1
		c-7.2-2.8-13.8-6.6-19.6-11.4c-3.7-3.1-8.7-4-13.1-2.4L43,188.6c-5.8-7.4-10.5-15.5-14-24.2l17.9-15.5c3.6-3,5.3-7.8,4.4-12.4
		c-0.7-4-1-7.7-0.9-11.1l0-0.1l0-0.4c-0.1-3.4,0.2-7,0.9-11.1l0.1-0.4c0.5-4.6-1.2-9.2-4.6-12l-18-15.6c3.5-8.8,8.2-16.9,13.9-24.2
		l22.6,7.8l0.2,0.1c4.4,1.4,9.4,0.4,12.8-2.5c5.9-4.9,12.4-8.7,19.5-11.4c4.4-1.6,7.6-5.5,8.5-10.1l4.6-23.4c9.3-1.3,18.7-1.3,28,0
		l4.6,23.4c0.8,4.6,4.1,8.4,8.4,10.1c7.1,2.8,13.8,6.6,19.8,11.5l0.4,0.3c3.8,2.7,8.5,3.4,12.6,1.9l22.5-7.8
		c5.8,7.4,10.5,15.5,14,24.2l-17.8,15.5c-3.7,3-5.5,7.8-4.6,12.6c0.7,3.9,1,7.6,0.9,11l0,0.1l0,0.4c0.1,3.4-0.2,7-0.9,11
		c-0.8,4.7,0.9,9.5,4.4,12.5L221.1,164.4z"/>
</g>
<title>art_frankly_settings_icon</title>
</svg>
