<?xml version="1.0" encoding="utf-8"?>
<!-- Generator: Adobe Illustrator 15.0.0, SVG Export Plug-In  -->
<!DOCTYPE svg PUBLIC "-//W3C//DTD SVG 1.1//EN" "http://www.w3.org/Graphics/SVG/1.1/DTD/svg11.dtd" [
	<!ENTITY ns_flows "http://ns.adobe.com/Flows/1.0/">
]>
<svg version="1.1"
	 xmlns="http://www.w3.org/2000/svg" xmlns:xlink="http://www.w3.org/1999/xlink" xmlns:a="http://ns.adobe.com/AdobeSVGViewerExtensions/3.0/"
	 x="0px" y="0px" width="1224px" height="792px" viewBox="-84.068 -0.041 1224 792"
	 overflow="visible" enable-background="new -84.068 -0.041 1224 792" xml:space="preserve">
<defs>
</defs>
<path fill="#FFFFFF" d="M527.932,571.897v198.064c0.042,8.34-4.718,15.959-12.23,19.578c-3.102,1.38-6.423,2.199-9.811,2.42
	c-4.956,0.255-9.804-1.507-13.44-4.884L8.417,412.944c-9.452-7.286-11.208-20.854-3.921-30.307c1.133-1.471,2.451-2.788,3.921-3.922
	L492.451,4.583c6.698-5.059,15.642-6.006,23.251-2.463c7.499,3.613,12.256,11.211,12.23,19.534v198.108
	c330.137,0,517.182,187.087,528.201,485.417c-0.352,10.059-7.46,18.607-17.286,20.787h-4.884c-7.347,0-12.23-3.673-19.534-11.021
	C935.083,615.892,748.038,571.897,527.932,571.897z"/>
</svg>
