<svg id="Layer_1" data-name="Layer 1" xmlns="http://www.w3.org/2000/svg" viewBox="0 0 244.83 244.85"><defs><style>.cls-1{fill:#020202;}</style></defs><title>art_frankly_notifications_icon_filled</title><path class="cls-1" d="M125,247.42a25.4,25.4,0,0,0,25.51-25.5h-51A25.4,25.4,0,0,0,125,247.42Z" transform="translate(-2.59 -2.58)"/><path class="cls-1" d="M246,192.73l-44.49-44.21V79.09a76.51,76.51,0,1,0-153,0v69.43L4,192.73a5.8,5.8,0,0,0-1.13,5.67,5.24,5.24,0,0,0,4.82,3.12H242.32a5.24,5.24,0,0,0,4.82-3.12A5.81,5.81,0,0,0,246,192.73Z" transform="translate(-2.59 -2.58)"/></svg>