<svg id="Layer_1" data-name="Layer 1" xmlns="http://www.w3.org/2000/svg" viewBox="0 0 191.73 244.76"><defs><style>.cls-1{fill:#020202;}</style></defs><title>art_frankly_info_icon_filled</title><path class="cls-1" d="M220.86,132.61a5.78,5.78,0,0,1-2.83,4.53,78.57,78.57,0,0,1-35.41,8.5c-16.71,0-35.41-5.1-53.54-10.2S92,125.24,75.54,125.24c-2.55,0-5.1.28-7.65,0.28v117a5.08,5.08,0,0,1-5.1,5.1H34.23a5.07,5.07,0,0,1-5.1-5.1V15.89a5.26,5.26,0,0,1,2.55-4.25C36.78,8.81,58,2.86,75.54,2.86,92,2.86,111,8,129.08,13.06s36.83,10.2,53.54,10.2a75.37,75.37,0,0,0,31.16-6.52,5.21,5.21,0,0,1,7.08,4.82v111Z" transform="translate(-29.14 -2.86)"/></svg>