<svg id="Layer_1" data-name="Layer 1" xmlns="http://www.w3.org/2000/svg" viewBox="0 0 240.64 222.37"><defs><style>.cls-1{fill:#231f20;}</style></defs><title>art_frankly_opportunities_icon_filled</title><polygon class="cls-1" points="100.3 126.36 23.44 81.73 0.7 94.82 76.94 139.9 100.3 126.36"/><polygon class="cls-1" points="100.85 13.63 77.78 0 0 44.51 23.48 58.14 100.85 13.63"/><path class="cls-1" d="M116,157L86.37,174a11.56,11.56,0,0,1-5.48,1.38,10.75,10.75,0,0,1-5.35-1.42L37,151.38v39.46l79,44.94V157Z" transform="translate(-4.32 -13.42)"/><path class="cls-1" d="M214,151.31l-38.51,23.41a9.93,9.93,0,0,1-5.22,1.48,9.27,9.27,0,0,1-4.86-1.38L137,158.07v77.71l77-44.94V151.31Z" transform="translate(-4.32 -13.42)"/><polygon class="cls-1" points="217.08 82.28 141.01 126.38 165.66 140.69 239.8 95.7 217.08 82.28"/><polygon class="cls-1" points="141.4 13.86 217.17 58.61 240.64 45.01 165.06 0.24 141.4 13.86"/><polygon class="cls-1" points="196.91 70.36 121.06 25.56 43.87 69.98 120.66 114.56 196.91 70.36"/></svg>