<?xml version="1.0" encoding="utf-8"?>
<!-- Generator: Adobe Illustrator 15.0.0, SVG Export Plug-In  -->
<!DOCTYPE svg PUBLIC "-//W3C//DTD SVG 1.1//EN" "http://www.w3.org/Graphics/SVG/1.1/DTD/svg11.dtd" [
	<!ENTITY ns_flows "http://ns.adobe.com/Flows/1.0/">
]>
<svg version="1.1"
	 xmlns="http://www.w3.org/2000/svg" xmlns:xlink="http://www.w3.org/1999/xlink" xmlns:a="http://ns.adobe.com/AdobeSVGViewerExtensions/3.0/"
	 x="0px" y="0px" width="600px" height="400px" viewBox="-132.252 0 600 400"
	 overflow="visible" enable-background="new -132.252 0 600 400" xml:space="preserve">
<defs>
</defs>
<path fill="#FFFFFF" d="M303.543,103.176c0,0.305,0,0.593-0.119,0.897C303.424,103.785,303.424,103.48,303.543,103.176
	L303.543,103.176z"/>
<path fill="#FFFFFF" d="M317.413,115.319c-3.765,16.667-9.932,32.698-18.308,47.591c-21.848,39.75-55.482,63.206-99.924,69.709
	c-14.123,1.872-28.365,2.704-42.611,2.49h-9.434h-9.18c-1.914,0.102-3.793,0.169-5.589,0.22c-3.4,0.021-6.795,0.269-10.162,0.745
	c-0.737,0.109-1.458,0.303-2.151,0.576c-0.381,0.951-0.637,1.947-0.762,2.963c-6.08,38.717-14.734,92.71-19.138,117.453
	l-2.304,12.905h-0.338c-0.864,5.217-1.694,10.535-2.558,16.022c-1.795,11.854,2.591,13.819,14.701,13.904
	c17.207,0.118,38.953,0.085,56.618,0.085c14.786,0,16.175-11.161,17.732-20.561c4.726-28.317,7.621-46.304,11.754-72.69
	c1.541-9.823,6.029-14.938,15.784-16.648c5.928-1.033,12.059-0.848,18.105-1.203c63.612-0.744,100.686-56.651,105.19-103.903
	C336.433,168.177,337.11,138.2,317.413,115.319z"/>
<path fill="#FFFFFF" d="M287.64,150.885c2.326-4.516,4.443-9.072,6.351-13.667C292.094,141.812,289.977,146.369,287.64,150.885z"/>
<path fill="#FFFFFF" d="M76.292,0C53.767,0,52.26,6.029,50.346,17.749c-7.904,48.449-15.666,96.92-23.288,145.415
	c-5.645,35.724-11.149,71.471-16.513,107.241c-3.523,23.168-7.181,46.32-10.162,69.557c-1.524,11.855,1.202,14.277,13.312,14.362
	c23.084,0.152,47.777,0.187,70.861,0c4.556-25.591,13.549-81.989,19.087-117.132c1.541-9.822,6.029-14.938,15.785-16.648
	c5.927-1.032,12.059-0.846,18.104-1.201c20.476,0,39.258,0.677,59.378-2.253c39.562-5.792,69.066-26.455,88.424-61.682
	c13.109-23.846,20.663-49.115,19.63-76.213c0-38.666-29.961-77.907-93.845-77.907C185.971,0.339,96.074,0,76.292,0z"/>
</svg>
